<svg width="600" height="355" viewBox="0 0 600 355" fill="none" xmlns="http://www.w3.org/2000/svg">
<g opacity="0.25">
<path d="M435.722 243.029C434.09 243.112 432.502 243.57 431.053 244.314C428.851 245.326 426.646 246.335 424.463 247.39C418.363 250.326 412.28 253.294 406.198 256.273C380.72 268.809 355.216 281.393 331.011 296.259C314.849 306.078 298.972 316.339 283.099 326.608C274.563 332.025 262.742 339.993 255.426 343.386C253.232 344.181 253.338 344.235 251.385 344.191C249.26 343.985 249.271 344.05 248.22 343.556C248.143 343.517 248.074 343.469 248.001 343.422C246.697 342.21 247.176 342.751 246.442 341.412C245.865 340.037 245.85 340.069 245.135 337.972C244.102 334.863 243.076 331.749 242.035 328.643C237.808 316.361 234.084 304.898 228.812 294.303C227.319 291.705 225.213 288.962 221.89 289.053C218.809 289.405 216.524 291.963 214.377 293.969C211.059 297.417 207.872 300.983 204.659 304.525C194.842 315.439 185.036 326.361 175.329 337.366C172.324 340.86 169.265 344.311 166.381 347.907C165.614 348.865 164.804 349.79 164.081 350.781C162.902 352.649 162.172 354.801 161.993 357C163.698 356.253 165.253 355.171 166.604 353.905C168.287 352.141 169.718 350.153 171.295 348.295C172.963 346.281 174.705 344.329 176.402 342.337C185.062 332.377 193.929 322.591 202.724 312.751C206.514 308.545 210.281 304.322 214.129 300.167C216.009 298.048 219.408 294.608 220.332 294.06C220.642 293.842 220.967 293.65 221.288 293.451C221.449 293.349 221.668 293.24 221.821 293.164C221.887 293.142 221.953 293.12 222.018 293.102C222.066 293.102 222.113 293.102 222.161 293.102C222.31 293.131 222.486 293.171 222.639 293.218C222.748 293.269 222.854 293.324 222.956 293.385C223.015 293.414 223.073 293.451 223.128 293.487C224.326 294.615 223.679 294.013 224.676 295.356C226.823 298.926 227.524 301.121 228.794 304.097C231.656 310.965 234.084 318.005 236.504 325.037C237.914 329.122 239.264 333.226 240.626 337.326C241.984 341.202 243.05 346.202 247.468 347.639C249.702 348.248 252.144 348.488 254.426 347.98C257.967 346.978 261.132 344.979 264.345 343.237C270.796 339.402 277.05 335.247 283.387 331.234C298.523 321.466 313.619 311.629 328.996 302.239C351.853 287.95 375.893 275.685 400.072 263.788C407.242 260.232 414.434 256.719 421.637 253.229C424.992 251.6 428.355 249.992 431.673 248.294C433.312 247.499 434.963 246.672 436.215 245.322C436.879 244.636 437.467 243.878 437.978 243.076C437.222 243.004 436.459 242.982 435.7 243.036L435.722 243.029Z" fill="#E28751"/>
<g clip-path="url(#clip0_111_538)">
<path d="M437.36 241.012C433.33 239.791 428.348 238.576 425.668 237.778C423.313 237.105 420.95 236.457 418.589 235.812C417.669 235.621 416.784 235.166 415.837 235.188C413.406 235.522 413.786 238.647 415.761 238.795C415.785 238.8 415.807 238.802 415.83 238.807C417.158 239.166 418.481 239.54 419.808 239.895C424.079 241.08 429.542 242.612 435.007 244.074C434.996 244.138 434.985 244.202 434.974 244.265C434.732 245.551 434.368 246.813 434.005 248.072C433.005 251.675 430.595 258.03 428.921 263.015C428.24 265.073 428.062 265.72 427.774 266.783C427.711 267.155 427.594 267.528 427.539 267.902C427.465 268.181 427.469 268.479 427.573 268.75C427.821 269.45 428.683 269.827 429.387 269.549C429.736 269.394 430.036 269.157 430.186 268.8C430.185 268.807 430.173 268.822 430.157 268.845C430.238 268.703 430.308 268.554 430.388 268.408C430.809 267.636 431.153 266.831 431.489 266.022C432.824 262.705 434.03 259.341 435.236 255.976C436.254 253.169 437.159 250.324 437.964 247.452C438.421 245.404 439.763 242.283 437.358 241.017L437.36 241.012Z" fill="#E28751"/>
</g>
<g clip-path="url(#clip1_111_538)">
<path d="M162.618 358.952C166.758 358.181 171.74 356.965 174.486 356.439C176.886 355.952 179.282 355.439 181.675 354.924C182.579 354.67 183.575 354.666 184.406 354.211C186.409 352.796 184.633 350.196 182.811 350.974C182.788 350.98 182.768 350.989 182.745 350.995C181.401 351.288 180.054 351.566 178.713 351.861C174.376 352.776 168.821 353.932 163.296 355.15C163.277 355.089 163.258 355.027 163.238 354.966C162.861 353.713 162.603 352.425 162.345 351.14C161.574 347.481 160.786 340.73 159.977 335.535C159.634 333.395 159.494 332.738 159.261 331.662C159.145 331.302 159.077 330.918 158.954 330.561C158.891 330.279 158.75 330.016 158.533 329.824C157.991 329.316 157.052 329.379 156.555 329.949C156.316 330.247 156.159 330.596 156.191 330.983C156.188 330.976 156.192 330.957 156.195 330.929C156.189 331.092 156.195 331.257 156.192 331.423C156.173 332.302 156.238 333.176 156.313 334.048C156.655 337.607 157.134 341.149 157.613 344.691C158.002 347.652 158.509 350.593 159.117 353.514C159.654 355.542 159.9 358.93 162.618 358.947L162.618 358.952Z" fill="#E28751"/>
</g>
</g>
<defs>
<clipPath id="clip0_111_538">
<rect width="21" height="37" fill="white" transform="translate(413.62 235.966) rotate(-21.0068)"/>
</clipPath>
<clipPath id="clip1_111_538">
<rect width="21" height="37" fill="white" transform="translate(186.015 352.499) rotate(131.575)"/>
</clipPath>
</defs>
</svg>
