<svg width="386" height="395" viewBox="0 0 386 395" fill="none" xmlns="http://www.w3.org/2000/svg">
<g opacity="0.25">
<path d="M382.512 257.113C381.955 254.634 380.448 252.461 379.312 250.185C377.271 246.395 375.14 242.64 372.946 238.922C367.892 230.332 362.588 221.867 357.03 213.542C352.84 207.462 348.661 201.348 343.573 195.855C338.344 190.232 332.968 184.626 326.569 180.094C322.805 177.574 318.731 175.463 314.525 173.633C310.01 171.611 305.296 169.96 300.362 169.05C292.157 167.67 283.728 167.262 275.426 168.038C271.146 168.477 267.023 169.692 262.829 170.554C260.063 171.059 257.97 171.639 256.232 171.604C254.707 171.567 255.521 171.707 254.217 171.395C254.112 171.344 254.015 171.289 253.933 171.241C253.817 171.144 253.708 171.041 253.611 170.932C253.559 170.863 253.503 170.787 253.447 170.708C253.368 170.599 253.297 170.478 253.241 170.379C253.193 170.238 253.155 170.097 253.125 169.957C253.073 168.724 253.092 169.387 253.249 168.347C253.581 166.723 254.12 165.137 254.774 163.595C255.589 161.783 256.576 160.039 257.697 158.374C258.96 156.475 260.426 154.697 261.801 152.864C264.19 149.98 269.845 143.509 273.666 139.606C278.757 134.515 283.99 129.55 289.26 124.617C299.058 115.448 309.094 106.505 319.235 97.6581C329.986 88.2277 340.8 78.8316 350.806 68.7249C354.978 64.5401 358.921 60.139 362.341 55.4084C364.252 52.765 365.62 49.8401 366.995 46.9392C368.935 42.8918 370.621 38.4598 369.724 33.9866C368.879 29.9941 367.048 26.0015 363.511 23.4062C357.549 18.703 349.427 17.6079 341.854 16.9762C326.606 16.2072 311.703 20.416 297.615 25.3561C283.504 30.3923 269.928 36.5716 256.374 42.7441C242.005 49.0952 230.04 54.9964 214.972 58.3367C211.866 58.9753 209.791 59.2499 207.604 59.4044C206.008 59.5211 204.401 59.5692 202.808 59.3907C202.614 59.3598 202.375 59.3254 202.244 59.3083C201.549 59.1984 200.865 59.0508 200.181 58.8894C199.751 58.7933 199.325 58.6869 198.902 58.5736C198.693 58.5187 198.48 58.4603 198.274 58.3985C198.05 58.3333 197.826 58.2578 197.605 58.1788C197.508 58.141 197.411 58.1067 197.317 58.0621C196.981 57.9282 196.671 57.7497 196.357 57.578C196.177 57.4751 196.005 57.3618 195.833 57.2485C195.65 57.1112 195.467 56.9704 195.291 56.8228C195.161 56.7061 195.037 56.5825 194.921 56.4589C194.839 56.3456 194.761 56.2289 194.697 56.1053C194.637 56.0023 194.589 55.8959 194.54 55.7895C194.353 55.3226 194.2 54.8454 194.017 54.3819C192.118 50.0049 193.378 45.6862 196.028 41.6078C200.042 35.607 207.586 29.9906 213.697 25.7784C217.203 23.4027 220.766 21.0923 224.433 18.9296C225.932 18.0336 227.558 17.3332 229.019 16.3823C229.655 15.9772 230.283 15.5584 230.896 15.1224C231.411 14.7379 232.096 14.1783 232.783 14.4015C232.843 14.1646 232.671 13.9586 232.469 13.8316C231.845 13.5467 231.124 13.5226 230.44 13.5501C227.868 13.6462 225.491 14.6349 223.356 15.9051C221.158 17.1204 219.076 18.497 216.942 19.805C209.477 24.7347 201.822 29.7091 195.957 36.2901C192.178 40.4955 189.161 45.7274 189.501 51.3163C189.587 52.662 189.916 53.9803 190.398 55.2539C190.772 56.2975 191.045 57.4064 191.707 58.3402C193.763 61.0625 197.377 62.1164 200.749 62.7859C205.806 63.7231 211.002 62.8717 215.989 61.9414C226.604 59.7099 236.607 55.6212 246.423 51.3747C265.864 42.8849 284.775 33.5129 303.745 27.258C316.802 23.0114 328.651 20.0247 341.831 20.6632C345.031 20.8726 345.685 21.0168 348.937 21.5558C351.24 21.9197 353.52 22.4449 355.68 23.2723C359.818 24.9235 363.796 27.6528 365.119 32.2907C366.793 36.7742 365.93 39.9188 363.668 45.0683C363.13 46.2217 362.588 47.3752 362.046 48.5287C361.609 49.411 361.142 50.283 360.656 51.1412C359.598 53.0053 358.319 54.7527 356.996 56.4623C346.821 69.0682 330.24 83.2945 316.619 95.3065C306.302 104.318 296.086 113.429 286.128 122.777C277.949 130.443 269.778 138.143 262.556 146.599C257.91 152.109 252.998 157.684 250.546 164.371C249.806 166.62 248.879 169.061 249.623 171.398C251.017 174.938 254.497 175.491 258.175 175.017C260.822 174.715 263.416 174.128 266.018 173.596C269.053 172.964 272.066 172.198 275.153 171.81C282.588 171.076 292.154 171.498 297.746 172.456C303.659 173.348 307.64 174.828 312.249 176.819C316.458 178.639 320.536 180.74 324.311 183.242C325.014 183.764 325.717 184.289 326.416 184.811C328.247 186.28 329.989 187.842 331.716 189.415C334.901 192.419 337.906 195.574 340.867 198.766C344.691 202.869 348.945 208.725 352.997 214.386C358.518 221.959 363.852 229.653 368.715 237.6C372.228 243.285 375.514 249.09 378.624 254.971C379.574 256.955 381.058 258.703 382.833 260.124C382.841 259.118 382.717 258.116 382.504 257.13L382.512 257.113Z" fill="#775A38"/>
<g clip-path="url(#clip0_111_537)">
<path d="M384.421 260.221C385.722 256.655 387.044 252.237 387.896 249.865C388.616 247.78 389.312 245.687 390.006 243.595C390.218 242.78 390.685 242.001 390.691 241.154C390.436 238.976 387.39 239.232 387.19 240.993C387.184 241.013 387.182 241.033 387.176 241.054C386.79 242.23 386.389 243.402 386.006 244.577C384.734 248.36 383.09 253.198 381.514 258.04C381.452 258.028 381.391 258.017 381.329 258.005C380.088 257.755 378.872 257.397 377.66 257.04C374.189 256.053 368.085 253.734 363.291 252.108C361.312 251.446 360.689 251.271 359.665 250.985C359.304 250.919 358.946 250.806 358.585 250.746C358.315 250.673 358.025 250.669 357.76 250.755C357.073 250.957 356.682 251.718 356.931 252.353C357.072 252.669 357.294 252.943 357.637 253.087C357.63 253.086 357.616 253.075 357.593 253.06C357.729 253.135 357.872 253.202 358.011 253.277C358.749 253.673 359.521 254.002 360.298 254.323C363.481 255.602 366.714 256.767 369.947 257.932C372.645 258.915 375.382 259.797 378.149 260.591C380.125 261.053 383.118 262.333 384.417 260.219L384.421 260.221Z" fill="#775A38"/>
</g>
<g clip-path="url(#clip1_111_537)">
<path d="M233.294 11.4215C229.351 10.4177 224.483 9.44065 221.861 8.78581C219.558 8.23651 217.247 7.70898 214.938 7.18415C214.041 7.03337 213.17 6.64609 212.25 6.68627C209.897 7.03665 210.339 9.81971 212.262 9.90918C212.285 9.91316 212.306 9.91445 212.329 9.91844C213.627 10.2098 214.921 10.5153 216.219 10.8039C220.395 11.7694 225.738 13.0196 231.081 14.207C231.072 14.264 231.063 14.3211 231.053 14.3781C230.849 15.5314 230.525 16.6671 230.202 17.7989C229.315 21.0384 227.124 26.7662 225.615 31.2543C225.002 33.1065 224.845 33.6884 224.59 34.6438C224.537 34.9781 224.433 35.3133 224.388 35.6481C224.323 35.8993 224.334 36.1656 224.441 36.4049C224.698 37.0247 225.545 37.3425 226.222 37.0798C226.557 36.9338 226.843 36.7155 226.981 36.3928C226.98 36.3993 226.969 36.413 226.954 36.4343C227.029 36.3054 227.094 36.1706 227.167 36.039C227.558 35.3404 227.874 34.6137 228.181 33.8838C229.399 30.8932 230.492 27.8623 231.584 24.8314C232.507 22.3018 233.318 19.742 234.033 17.1593C234.428 15.3202 235.659 12.5043 233.293 11.4253L233.294 11.4215Z" fill="#775A38"/>
</g>
</g>
<defs>
<clipPath id="clip0_111_537">
<rect width="18.9471" height="35.6457" fill="white" transform="matrix(0.356402 0.934333 -0.951752 0.30687 389.999 239.154)"/>
</clipPath>
<clipPath id="clip1_111_537">
<rect width="20.1745" height="33.4896" fill="white" transform="matrix(0.935134 -0.354295 0.40902 0.912526 210.115 7.42923)"/>
</clipPath>
</defs>
</svg>
