<svg width="449" height="717" viewBox="0 0 449 717" fill="none" xmlns="http://www.w3.org/2000/svg">
<g opacity="0.13">
<path d="M224.101 71.7241L222.098 196.633C222.054 199.062 221.049 199.423 219.083 197.718C202.458 183.327 186.391 168.464 170.881 153.13C170.477 152.729 170.261 152.207 170.277 151.671C170.293 151.135 170.541 150.624 170.969 150.243C174.623 147.007 178.673 143.092 180.147 138.732C184.77 124.987 180.58 114.433 167.58 107.069C148.563 96.2758 126.025 108.019 123.406 126.447C120.919 143.945 135.82 158.42 156.421 156.172C158.182 155.978 159.986 155.281 161.769 155.087C162.184 155.046 162.602 155.091 162.985 155.219C163.369 155.348 163.707 155.555 163.97 155.823C181.666 173.845 199.01 192.215 217.652 209.054C221.13 212.193 221.438 214.286 221.438 218.568C221.453 260.205 221.533 301.841 221.68 343.477" stroke="#A4A692" stroke-width="2"/>
<path d="M221.68 343.477L222.076 358.902C222.08 359.004 222.05 359.106 221.989 359.193C221.928 359.28 221.839 359.35 221.734 359.393C221.628 359.437 221.51 359.452 221.395 359.437C221.28 359.422 221.172 359.377 221.086 359.309C209.655 350.976 198.416 342.386 187.367 333.537C185.312 331.883 184.007 329.726 183.449 327.064C182.525 322.633 181.666 318.344 180.874 314.198" stroke="#858F82" stroke-width="2"/>
<path d="M180.874 314.197L174.271 280.616" stroke="#A4A692" stroke-width="2"/>
<path d="M174.271 280.616C177.543 284.879 180.397 287.172 182.833 287.495C192.899 288.877 200.191 286.164 204.711 279.356C208.32 273.911 207.814 267.362 204.755 261.897C198.878 251.433 182.591 251.375 174.007 258.351C172.701 259.41 171.857 260.831 171.476 262.614C171.226 263.751 170.427 264.119 169.077 263.719" stroke="#FBDDC2" stroke-width="2"/>
<path d="M169.076 263.719L156.949 221.882C156.743 221.146 156.23 220.9 155.408 221.146L154.792 221.32C154.449 221.422 154.158 221.628 153.973 221.902C153.787 222.175 153.719 222.498 153.779 222.812L172.092 313.597" stroke="#A4A692" stroke-width="2"/>
<path d="M172.092 313.597L174.029 321.387C174.513 323.324 173.926 323.622 172.268 322.278L161.99 314.004" stroke="#858F82" stroke-width="2"/>
<path d="M161.99 314.004L124.661 284.162C124.147 283.753 123.806 283.202 123.695 282.6C123.583 281.998 123.706 281.381 124.045 280.848C130.648 270.346 130.339 255.716 118.146 248.449C111.763 244.664 105.219 243.624 98.5132 245.329C80.4431 249.902 74.7425 266.858 84.0087 280.267C90.2595 289.278 105.226 292.708 116.517 288.038C117.099 287.799 117.749 287.723 118.379 287.82C119.009 287.917 119.589 288.183 120.039 288.58L156.333 320.418" stroke="#A4A692" stroke-width="2"/>
<path d="M156.333 320.418L218.027 369.056C218.747 369.623 219.325 370.316 219.723 371.09C220.121 371.864 220.33 372.703 220.338 373.551L221.13 485.051C221.13 485.232 221.071 485.257 220.954 485.128L209.751 473.889" stroke="#858F82" stroke-width="2"/>
<path d="M209.751 473.889C185.071 445.507 161.439 416.37 138.857 386.476" stroke="#A4A692" stroke-width="2"/>
<path d="M138.857 386.476C146.311 384.59 151.219 380.928 153.582 375.489C159.282 362.409 144.866 349.368 130.053 355.976C123.582 358.87 121.139 364.153 122.724 371.827" stroke="#C2C6AE" stroke-width="2"/>
<path d="M122.724 371.827C124.881 379.675 133.267 384.713 137.801 391.631C146.407 404.75 155.497 418.256 165.621 430.599C165.72 430.72 165.783 430.861 165.805 431.008C165.826 431.156 165.806 431.306 165.744 431.445C165.683 431.583 165.583 431.706 165.454 431.802C165.325 431.899 165.171 431.965 165.005 431.995C149.114 434.708 132.863 435.115 116.253 433.215C104.485 431.885 94.588 426.369 86.5618 416.667" stroke="#A4A692" stroke-width="2"/>
<path d="M86.5616 416.667C81.5727 410.479 78.1759 403.555 76.3711 395.894C76.2564 395.404 76.3507 394.895 76.6354 394.466C76.9201 394.036 77.375 393.716 77.9118 393.569C87.0899 390.914 94.3091 385.953 95.5857 377.059C96.202 372.815 96.224 367.68 95.1675 363.165" stroke="#F0BC9B" stroke-width="2"/>
<path d="M95.1679 363.165C94.2142 358.346 90.7953 354.458 84.9113 351.5C80.2746 349.174 75.3223 348.425 70.0546 349.252C60.7958 350.686 54.4864 354.529 51.1262 360.782" stroke="#FBDDC2" stroke-width="2"/>
<path d="M51.1259 360.782C38.1181 371.207 48.3747 386.903 61.3605 392.929C64.2658 394.266 68.0954 393.646 71.2208 394.441C71.9692 394.634 72.4754 395.054 72.7395 395.7C76.0704 403.71 80.6998 410.996 86.6278 417.558" stroke="#F0BC9B" stroke-width="2"/>
<path d="M86.6279 417.558C97.3541 429.417 111.257 436.154 128.337 437.769C141.396 439.009 154.14 438.796 166.568 437.13C167.376 437.024 168.201 437.119 168.951 437.403C169.701 437.687 170.347 438.149 170.816 438.738L201.674 477.435" stroke="#A4A692" stroke-width="2"/>
<path d="M201.673 477.435L220.778 499.836C221.447 500.614 221.797 501.557 221.768 502.51L220.558 564.79C220.557 564.888 220.531 564.985 220.482 565.074C220.433 565.162 220.362 565.24 220.274 565.303C220.186 565.366 220.084 565.411 219.973 565.436C219.862 565.462 219.746 565.466 219.633 565.449C197.198 562.245 175.1 558.55 153.34 554.365C152.606 554.21 152.195 553.803 152.107 553.144L146.517 507.529" stroke="#858F82" stroke-width="2"/>
<path d="M146.516 507.529C158.739 508.343 166.633 503.75 170.199 493.751C173.779 483.714 171.38 475.207 163.002 468.231C153.427 460.267 138.042 460.092 127.786 467.243C115.9 475.517 114.272 487.977 121.821 499.08C126.194 505.514 132.665 508.162 141.234 507.025" stroke="#FBDDC2" stroke-width="2"/>
<path d="M141.234 507.025L145.262 550.916C145.321 551.575 144.991 551.833 144.272 551.691C112.416 545.748 81.8296 536.789 52.5125 524.814" stroke="#858F82" stroke-width="2"/>
<path d="M52.5127 524.814C56.4304 521.868 58.7415 519.892 59.4458 518.884C66.511 509.04 68.2277 495.786 60.1281 486.117C49.8055 473.773 31.7574 470.537 17.1208 478.714C-7.70631 492.569 -3.2823 526.19 26.431 531.48C34.7948 532.965 43.2465 531.551 51.7864 527.236" stroke="#C2C6AE" stroke-width="2"/>
<path d="M51.7861 527.236C78.9463 539.147 106.723 548.674 135.115 555.818C136.744 556.219 136.825 556.8 135.358 557.562L88.9608 581.61" stroke="#858F82" stroke-width="2"/>
<path d="M88.9606 581.61C81.2278 575.706 72.4752 573.995 62.7029 576.475C47.1859 580.428 41.2433 595.891 48.8367 607.867C52.7251 613.964 59.0712 617.297 67.8752 617.866C80.8463 618.705 89.2321 613.564 93.0324 602.441" stroke="#C2C6AE" stroke-width="2"/>
<path d="M93.0328 602.441C93.7664 599.496 93.9646 596.001 93.6271 591.958C93.495 590.272 92.3505 589.129 91.382 587.733C90.9859 587.152 91.0739 586.629 91.6461 586.164C92.0276 585.841 92.5852 585.647 93.3189 585.582" stroke="#A4A692" stroke-width="2"/>
<path d="M93.3188 585.582L140.398 561.748C142.556 560.656 145.118 560.356 147.529 560.915C167.793 565.63 188.57 569.841 209.861 573.549C212.825 574.066 215.532 574.705 217.983 575.467C218.446 575.614 218.843 575.888 219.113 576.248C219.383 576.608 219.512 577.035 219.479 577.463L209.025 698.845" stroke="#858F82" stroke-width="2"/>
<path d="M209.025 698.845C200.279 698.458 191.725 698.936 183.361 700.279C179.473 700.912 175.929 702.391 172.731 704.717C172.477 704.905 172.276 705.141 172.142 705.408C172.009 705.675 171.946 705.965 171.958 706.256C171.971 706.548 172.059 706.833 172.216 707.09C172.373 707.347 172.594 707.569 172.863 707.74C175.834 709.619 179.686 711.227 183.295 711.925C208.254 716.679 234.175 717.273 261.056 713.708C266.94 712.92 272.399 711.221 277.431 708.612C277.8 708.42 278.116 708.16 278.357 707.848C278.598 707.537 278.758 707.182 278.825 706.81C278.893 706.438 278.866 706.057 278.746 705.695C278.627 705.334 278.419 704.999 278.136 704.717C277.299 703.877 276.265 703.218 275.032 702.74C265.818 699.2 256.581 698.096 247.322 699.427" stroke="#D1D1B9" stroke-width="2"/>
<path d="M247.322 699.427C246.53 697.321 245.965 694.634 245.627 691.365C241.665 652.83 238.173 614.216 235.15 575.525C235.092 574.789 235.466 574.33 236.273 574.15L297.13 560.275C298.019 560.071 298.951 560.062 299.845 560.248C300.738 560.433 301.567 560.809 302.259 561.341L308.245 565.914" stroke="#858F82" stroke-width="2"/>
<path d="M308.245 565.914L339.939 589.652C340.208 589.858 340.421 590.114 340.566 590.402C340.71 590.69 340.782 591.002 340.776 591.318C340.497 600.413 344.525 606.562 352.859 609.766C361.641 613.157 373.13 610.231 377.906 602.402C389.77 583.025 361.707 566.224 344.759 583.083C343.63 584.219 342.419 584.284 341.128 583.276L314.012 562.077" stroke="#A4A692" stroke-width="2"/>
<path d="M314.011 562.077C312.016 560.811 310.776 559.804 310.292 559.054C309.162 557.323 309.668 556.128 311.81 555.469C337.914 547.55 364.179 537.603 390.606 525.628" stroke="#858F82" stroke-width="2"/>
<path d="M390.606 525.628C399.498 531.17 408.852 533.398 418.669 532.313C438.302 530.143 450.561 514.97 447.546 497.743C446.343 490.858 441.992 484.844 434.494 479.703C425.939 473.838 415.624 472.268 403.548 474.994C391.09 477.784 382.859 486.136 380.416 497.123C378.185 507.148 380.782 515.913 388.207 523.419C388.647 523.858 388.471 524.452 387.679 525.201" stroke="#F0BC9B" stroke-width="2"/>
<path d="M387.679 525.201C379.418 528.16 371.083 530.931 362.676 533.515C345.346 538.837 327.709 543.959 309.764 548.881C309.641 548.912 309.512 548.917 309.387 548.895C309.262 548.874 309.145 548.825 309.045 548.755C308.946 548.684 308.867 548.594 308.816 548.491C308.765 548.388 308.743 548.276 308.751 548.164L310.6 529.988" stroke="#858F82" stroke-width="2"/>
<path d="M310.6 529.988C310.615 529.704 310.71 529.406 310.886 529.096C311.194 528.489 311.73 528.179 312.493 528.166C321.532 528.153 328.142 524.142 332.324 516.133C340.556 500.379 327.988 484.45 307.805 485.593C285.377 486.872 279.456 507.374 290.813 522.023C294.262 526.48 298.407 528.702 303.249 528.689C303.763 528.689 304.195 528.845 304.548 529.155C304.944 529.49 305.157 529.955 305.186 530.55" stroke="#F0BC9B" stroke-width="2"/>
<path d="M305.186 530.55L302.632 548.455C302.559 548.957 302.329 549.431 301.967 549.824C301.606 550.218 301.127 550.515 300.585 550.683C296.888 551.833 292.867 552.86 288.524 553.764C271.885 557.226 254.372 560.695 235.986 564.17C235.843 564.199 235.693 564.2 235.549 564.173C235.405 564.146 235.27 564.091 235.154 564.013C235.038 563.935 234.944 563.836 234.878 563.722C234.813 563.608 234.778 563.483 234.776 563.356L233.257 501.696C233.237 501.051 233.395 500.411 233.718 499.834C234.04 499.256 234.516 498.758 235.106 498.383C256.544 484.663 277.563 470.537 298.164 456.004C298.296 455.913 301.297 453.53 307.166 448.853C313.036 444.177 318.347 442.375 323.102 443.447" stroke="#858F82" stroke-width="2"/>
<path d="M323.102 443.447L350.196 449.919" stroke="#A4A692" stroke-width="2"/>
<path d="M350.196 449.919C347.731 454.712 348.047 459.64 351.143 464.704C355.295 471.512 361.26 475.045 369.037 475.304C391.223 476.04 399.718 448.524 378.017 440.424C372.705 438.447 367.092 438.008 361.179 439.106C358.332 439.636 355.794 441.528 353.564 444.784" stroke="#F0BC9B" stroke-width="2"/>
<path d="M353.563 444.784L322.794 438.544" stroke="#A4A692" stroke-width="2"/>
<path d="M322.794 438.544C322.72 437.911 322.896 437.453 323.322 437.168C334.283 429.482 344.884 421.408 355.126 412.946" stroke="#858F82" stroke-width="2"/>
<path d="M355.126 412.946C363.079 406.875 370.562 400.351 377.576 393.375C379.205 391.747 381.956 390.72 384.465 390.914C401.193 392.212 416.578 382.756 417.854 367.777C420.341 338.362 372.822 329.273 362.125 356.751C357.635 368.261 361.502 378.512 373.724 387.503C373.909 387.641 374.059 387.811 374.163 388.004C374.267 388.196 374.322 388.406 374.327 388.618C374.331 388.831 374.283 389.043 374.187 389.238C374.091 389.433 373.948 389.608 373.768 389.751L352.749 406.532" stroke="#A4A692" stroke-width="2"/>
<path d="M352.749 406.532C329.286 423.682 306.462 441.994 281.657 457.573C281.173 457.864 280.314 457.941 279.786 457.748C279.375 457.606 279.199 457.341 279.258 456.953L287.534 402.792" stroke="#858F82" stroke-width="2"/>
<path d="M287.534 402.792L288.524 401.203" stroke="#A4A692" stroke-width="2"/>
<path d="M288.524 401.203C300.366 404.033 310.072 393.724 312.207 384.442C314.98 372.292 306.088 363.669 293.081 361.731C281.349 359.968 269.266 367.137 266.515 376.478C263.433 386.993 267.608 394.886 279.038 400.157" stroke="#F0BC9B" stroke-width="2"/>
<path d="M279.038 400.157C280.153 399.188 280.762 400.441 280.865 403.916" stroke="#A4A692" stroke-width="2"/>
<path d="M280.865 403.916C277.49 421.77 274.166 439.797 270.894 457.999C270.19 461.894 268.671 466.061 264.995 468.464C255.619 474.651 245.7 481.078 235.238 487.744C235.058 487.858 234.847 487.925 234.626 487.94C234.406 487.955 234.185 487.916 233.987 487.829C233.79 487.741 233.624 487.607 233.507 487.442C233.39 487.277 233.326 487.086 233.323 486.892L233.499 372.021C233.499 371.164 233.732 370.318 234.18 369.553C234.627 368.788 235.277 368.126 236.074 367.622C253.11 356.861 269.911 344.995 286.477 332.025C300.065 321.38 313.505 310.445 326.799 299.219" stroke="#858F82" stroke-width="2"/>
<path d="M326.799 299.219C328.78 298.25 332.705 297.985 338.574 298.424C345.691 298.967 352.639 296.538 359.418 291.138C374.759 278.95 370.753 257.867 352.265 249.728C337.122 243.043 314.43 250.212 311.37 265.676C309.184 276.682 312.661 285.48 321.803 292.068C322.043 292.238 322.237 292.455 322.371 292.703C322.504 292.951 322.573 293.224 322.573 293.502C322.559 293.812 322.522 294.064 322.463 294.258" stroke="#A4A692" stroke-width="2"/>
<path d="M322.464 294.258C320.043 295.834 317.724 297.578 315.509 299.49C299.236 313.481 281.9 326.218 263.499 337.703C263.386 337.772 263.253 337.811 263.115 337.815C262.977 337.818 262.841 337.786 262.724 337.722C262.607 337.658 262.514 337.565 262.456 337.455C262.398 337.345 262.378 337.222 262.399 337.102L272.611 282.631" stroke="#858F82" stroke-width="2"/>
<path d="M272.611 282.631C273.183 282.528 273.323 282.127 273.029 281.43" stroke="#A4A692" stroke-width="2"/>
<path d="M273.03 281.43C273.91 281.262 274.673 281.533 275.319 282.244C275.832 282.812 276.5 283.154 277.321 283.271C280.051 283.619 282.802 283.051 285.575 281.565C293.381 277.419 296.235 271.418 294.137 263.563C289.933 247.906 263.873 248.236 259.868 264.435C258.371 270.455 260.491 275.681 266.228 280.112" stroke="#F0BC9B" stroke-width="2"/>
<path d="M266.228 280.112C262.222 299.154 258.238 318.144 254.277 337.083C253.176 342.411 251.547 345.473 247.057 348.69C242.817 351.713 238.356 354.658 233.676 357.526C233.526 357.616 233.353 357.67 233.172 357.681C232.992 357.692 232.811 357.66 232.65 357.589C232.488 357.517 232.351 357.409 232.252 357.276C232.154 357.142 232.098 356.988 232.091 356.828L231.695 341.249" stroke="#858F82" stroke-width="2"/>
<path d="M231.695 341.249C232.047 299.199 231.908 257.175 231.277 215.177C231.255 213.027 231.849 211.011 233.632 209.48C252.12 193.565 269.236 177.481 284.981 161.23C285.572 160.622 286.347 160.175 287.217 159.941C288.086 159.708 289.013 159.698 289.889 159.912C303.08 163.09 313.542 160.287 321.275 151.502C339.785 130.458 315.993 101.295 287.754 110.615C266.757 117.533 264.556 141.503 279.39 154.622C279.787 154.977 280.007 155.456 280.003 155.953C279.999 156.451 279.77 156.927 279.368 157.277L233.478 197.796C233.322 197.932 233.124 198.026 232.909 198.064C232.694 198.103 232.47 198.085 232.266 198.013C232.062 197.94 231.887 197.817 231.762 197.658C231.637 197.499 231.568 197.311 231.563 197.117L228.019 68.0425" stroke="#A4A692" stroke-width="2"/>
<path d="M228.019 68.0425C243.353 64.8645 253.448 57.8111 258.305 46.882C268.539 23.9195 250.777 -0.0314651 221.394 1.03431" stroke="#F0BC9B" stroke-width="2"/>
<path d="M221.394 1.03406C206.574 1.93835 196.09 8.29429 189.942 20.1018C185.246 29.106 184.74 37.7807 188.423 46.126C194.102 59.0574 205.18 66.3951 221.658 68.1391C222.392 68.2166 222.964 68.5266 223.375 69.0692C223.918 69.8055 224.16 70.6904 224.101 71.7239" stroke="#FBDDC2" stroke-width="2"/>
<path d="M221.394 1.03406C221.277 23.1763 221.952 45.0925 223.419 66.7826C223.449 67.2606 223.573 67.6547 223.794 67.9648C224.028 68.3006 224.322 68.6364 224.674 68.9723" stroke="#EDA878" stroke-width="2"/>
<path d="M224.674 68.9725C224.762 69.9802 224.571 70.8974 224.101 71.7241" stroke="#A1926F" stroke-width="2"/>
<path d="M231.695 341.249L230.506 333.866C230.403 333.233 230.037 333.078 229.406 333.401C228.54 333.853 227.828 333.659 227.271 332.82C226.61 331.825 226.016 331.857 225.488 332.916C225.077 333.704 224.409 334.131 223.485 334.195C222.575 334.247 222.106 334.673 222.076 335.474L221.68 343.477" stroke="#2B442F" stroke-width="2"/>
<path d="M228.019 68.0425C228.562 69.2051 228.217 69.3408 226.985 68.4495C226.574 68.1523 226.141 68.1329 225.686 68.3913L224.674 68.9726" stroke="#967148" stroke-width="2"/>
<path d="M280.865 403.916C284.489 400.609 286.712 400.235 287.534 402.792" stroke="#2B442F" stroke-width="2"/>
<path d="M352.749 406.532C355.097 405.977 356.77 406.255 357.767 407.366C358.428 408.076 358.244 408.528 357.217 408.722C356.542 408.851 356.322 409.245 356.557 409.904C356.777 410.576 356.513 410.834 355.764 410.679C355.676 410.666 355.596 410.673 355.522 410.699C355.214 410.828 355.009 411.022 354.906 411.28C354.701 411.784 354.774 412.339 355.126 412.946" stroke="#2B442F" stroke-width="2"/>
<path d="M322.794 438.544C325.171 442.2 325.274 443.834 323.102 443.447" stroke="#2B442F" stroke-width="2"/>
<path d="M305.186 530.55C305.802 529.542 307.607 529.355 310.6 529.988" stroke="#775A38" stroke-width="2"/>
<path d="M387.679 525.201C388.148 525.576 389.124 525.718 390.606 525.628" stroke="#775A38" stroke-width="2"/>
<path d="M314.012 562.077C313.748 564.222 313.931 566.16 314.562 567.891C314.826 568.588 314.562 568.834 313.769 568.627C313.3 568.498 312.882 568.246 312.515 567.871C311.312 566.631 309.889 565.979 308.245 565.914" stroke="#2B442F" stroke-width="2"/>
<path d="M247.322 699.427C247.351 700.111 247.19 700.647 246.838 701.035C246.544 701.332 246.031 701.481 245.297 701.481C233.661 701.584 222.025 701.571 210.389 701.442C209.597 701.442 209.091 701.106 208.871 700.434C208.709 699.943 208.761 699.414 209.025 698.845" stroke="#596F56" stroke-width="2"/>
<path d="M93.3188 585.582C91.1471 584.032 89.7165 583.722 89.0268 584.652C88.8361 584.924 88.5573 585.059 88.1905 585.059H87.156C86.6278 585.059 86.3564 584.827 86.3417 584.362C86.3123 584.039 86.239 583.748 86.1216 583.49" stroke="#2B442F" stroke-width="2"/>
<path d="M86.1216 583.49C86.7966 582.792 87.7429 582.165 88.9608 581.61" stroke="#49644B" stroke-width="2"/>
<path d="M51.7863 527.236L43.9948 519.485C42.0873 517.586 42.3441 517.328 44.7651 518.71C47.3623 520.17 49.9448 522.204 52.5126 524.814" stroke="#49644B" stroke-width="2"/>
<path d="M141.234 507.025L139.826 493.364C139.782 492.899 140.024 492.647 140.552 492.608L144.36 492.356C144.484 492.348 144.609 492.362 144.727 492.397C144.845 492.432 144.955 492.487 145.049 492.559C145.143 492.631 145.22 492.718 145.275 492.816C145.331 492.915 145.364 493.022 145.372 493.131L146.517 507.529" stroke="#827B5F" stroke-width="2"/>
<path d="M201.673 477.436C203.067 476.712 204.491 476.376 205.943 476.428C206.251 476.441 206.361 476.35 206.273 476.157C206.2 475.976 206.046 475.859 205.811 475.808C205.547 475.743 205.422 475.588 205.437 475.343C205.481 474.464 206.031 473.986 207.088 473.909C208.027 473.831 208.915 473.825 209.751 473.889" stroke="#2B442F" stroke-width="2"/>
<path d="M353.563 444.784L370.049 445.753C370.53 445.777 371.002 445.897 371.428 446.105C371.854 446.313 372.225 446.603 372.514 446.954C373.849 448.608 373.343 450.19 370.995 451.702C370.368 452.091 369.911 452.651 369.697 453.291L367.804 459.046C367.705 459.343 367.506 459.607 367.233 459.802C366.961 459.997 366.627 460.116 366.277 460.141C365.927 460.166 365.576 460.097 365.271 459.943C364.966 459.789 364.721 459.557 364.568 459.278L360.915 452.748C360.563 452.115 359.998 451.728 359.22 451.586L350.196 449.919" stroke="#967148" stroke-width="2"/>
<path d="M272.611 282.631L272.237 279.55C272.164 278.84 271.716 278.478 270.894 278.465C269.691 278.452 268.246 278.898 266.559 279.802" stroke="#2B442F" stroke-width="2"/>
<path d="M273.029 281.43L276.133 267.633C276.412 266.406 275.869 265.624 274.504 265.288C272.993 264.914 271.555 265.786 270.19 267.904C270.029 268.162 269.904 268.442 269.816 268.737L266.559 279.802" stroke="#967148" stroke-width="2"/>
<path d="M266.559 279.802C266.485 279.789 266.375 279.893 266.229 280.112" stroke="#775A38" stroke-width="2"/>
<path d="M326.799 299.219C326.403 298.766 326.3 298.107 326.491 297.242C326.623 296.648 326.344 296.286 325.655 296.157C323.821 295.821 322.757 295.188 322.463 294.258" stroke="#2B442F" stroke-width="2"/>
<path d="M86.1215 583.49C80.4137 585.247 74.6617 586.945 68.8658 588.586C61.2797 590.743 59.4309 594.916 63.3193 601.104C65.1681 604.075 68.1541 605.987 72.2773 606.84C78.983 608.235 85.9014 606.769 93.0326 602.441" stroke="#687B5B" stroke-width="2"/>
<path d="M161.99 314.004C160.698 314.96 159.855 316.135 159.458 317.531C159.268 318.189 158.783 318.532 158.006 318.557L157.147 318.577C156.399 318.603 156.216 318.906 156.597 319.488C156.803 319.798 156.715 320.108 156.333 320.418" stroke="#2B442F" stroke-width="2"/>
<path d="M169.077 263.719L174.271 280.616" stroke="#A1926F" stroke-width="2"/>
<path d="M180.874 314.198L176.846 313.248C176.186 313.08 175.717 312.718 175.438 312.163C175.232 311.737 174.932 311.459 174.535 311.33C173.816 311.11 173.361 311.317 173.171 311.95C172.995 312.531 172.635 313.08 172.092 313.597" stroke="#2B442F" stroke-width="2"/>
<path d="M138.857 386.476L136.26 370.819C136.157 370.147 135.798 369.618 135.181 369.23C127.17 364.089 123.017 364.954 122.724 371.827" stroke="#687B5B" stroke-width="2"/>
<path d="M86.5615 416.667C86.3854 417.067 86.4074 417.365 86.6275 417.558" stroke="#967148" stroke-width="2"/>
<path d="M288.524 401.203L290.109 387.775C290.388 385.398 289.177 384.345 286.477 384.616L285.663 384.694C282.669 385.004 281.173 386.483 281.173 389.131C281.158 393.33 280.446 397.005 279.038 400.157" stroke="#967148" stroke-width="2"/>
<path d="M95.1679 363.165C80.8028 359.78 66.1223 358.986 51.1262 360.782" stroke="#EDA878" stroke-width="2"/>
<path d="M206.908 132.106C207.927 131.13 208.392 129.78 208.202 128.352C208.011 126.924 207.18 125.535 205.891 124.491C204.602 123.448 202.96 122.835 201.328 122.787C199.696 122.739 198.206 123.261 197.187 124.237C196.167 125.213 195.702 126.563 195.892 127.991C196.083 129.419 196.915 130.808 198.204 131.851C199.493 132.895 201.134 133.508 202.766 133.556C204.398 133.604 205.888 133.082 206.908 132.106Z" stroke="#FBDDC2" stroke-width="2"/>
<path d="M170.661 201.826C164.542 180.239 124.308 190.471 134.345 212.251C136.311 216.514 139.4 219.092 143.611 219.983C149.025 221.146 154.242 219.227 159.81 219.615C160.881 219.692 161.857 219.46 162.738 218.917C170.001 214.499 172.642 208.802 170.661 201.826Z" stroke="#F0BC9B" stroke-width="2"/>
<path d="M275.035 234.926C278.867 234.35 282.273 232.41 284.503 229.534C286.734 226.658 287.606 223.082 286.928 219.591C286.593 217.863 285.887 216.208 284.851 214.721C283.815 213.233 282.469 211.943 280.89 210.922C279.311 209.902 277.53 209.173 275.648 208.775C273.767 208.377 271.822 208.32 269.924 208.605C266.092 209.182 262.686 211.122 260.456 213.997C258.225 216.873 257.353 220.45 258.03 223.94C258.366 225.668 259.072 227.324 260.108 228.811C261.144 230.298 262.49 231.589 264.069 232.609C265.648 233.629 267.429 234.359 269.311 234.756C271.192 235.154 273.137 235.212 275.035 234.926Z" stroke="#FBDDC2" stroke-width="2"/>
<path d="M323.29 350.779C324.433 350.04 325.394 349.101 326.116 348.016C326.838 346.932 327.307 345.723 327.498 344.459C327.688 343.195 327.596 341.9 327.226 340.649C326.856 339.398 326.215 338.214 325.341 337.166C324.466 336.118 323.375 335.226 322.13 334.541C320.884 333.856 319.509 333.391 318.081 333.173C316.654 332.955 315.204 332.988 313.812 333.271C312.421 333.553 311.116 334.079 309.973 334.819C308.829 335.558 307.869 336.497 307.147 337.582C306.424 338.666 305.955 339.875 305.764 341.139C305.574 342.403 305.666 343.698 306.036 344.949C306.407 346.2 307.047 347.384 307.922 348.432C308.796 349.48 309.887 350.372 311.133 351.057C312.378 351.742 313.754 352.207 315.181 352.425C316.608 352.643 318.058 352.61 319.45 352.328C320.841 352.045 322.146 351.519 323.29 350.779Z" stroke="#F0BC9B" stroke-width="2"/>
<path d="M74.6766 387.077C75.1168 387.659 75.579 387.671 76.0632 387.116C77.3251 385.695 78.0368 384.112 78.1982 382.368C78.3009 381.322 77.78 380.941 76.6355 381.225C73.4661 382.02 73.0699 384.888 74.6766 387.077Z" stroke="#CE5D2D" stroke-width="2"/>
<path d="M221.394 1.03406C221.277 23.1763 221.952 45.0925 223.419 66.7826C223.449 67.2606 223.573 67.6547 223.793 67.9648C224.028 68.3006 224.322 68.6364 224.674 68.9723C224.762 69.9799 224.571 70.8971 224.102 71.7239C224.16 70.6904 223.918 69.8055 223.375 69.0692C222.964 68.5266 222.392 68.2166 221.658 68.1391C205.18 66.3951 194.102 59.0574 188.424 46.126C184.741 37.7807 185.247 29.106 189.942 20.1018C196.09 8.29429 206.574 1.93835 221.394 1.03406Z" fill="#F8C89E"/>
<path d="M221.394 1.03431C250.778 -0.0314651 268.54 23.9195 258.305 46.882C253.448 57.8111 243.353 64.8645 228.019 68.0425C228.562 69.2051 228.217 69.3408 226.985 68.4494C226.574 68.1523 226.141 68.1329 225.686 68.3913L224.674 68.9726C224.322 68.6367 224.028 68.3009 223.794 67.965C223.573 67.655 223.449 67.2608 223.419 66.7829C221.952 45.0928 221.277 23.1766 221.394 1.03431Z" fill="#E28751"/>
<path d="M228.019 68.0425L231.562 197.117C231.567 197.311 231.637 197.499 231.762 197.658C231.887 197.817 232.062 197.94 232.266 198.013C232.47 198.085 232.693 198.103 232.909 198.064C233.124 198.026 233.322 197.932 233.477 197.796L279.368 157.277C279.77 156.927 279.998 156.451 280.002 155.953C280.006 155.456 279.786 154.977 279.39 154.622C264.555 141.503 266.756 117.533 287.754 110.615C315.992 101.295 339.785 130.458 321.275 151.502C313.542 160.287 303.08 163.09 289.889 159.912C289.013 159.698 288.086 159.708 287.216 159.941C286.347 160.175 285.571 160.622 284.98 161.23C269.236 177.481 252.12 193.565 233.631 209.48C231.849 211.011 231.254 213.027 231.276 215.177C231.907 257.175 232.047 299.199 231.695 341.249L230.506 333.866C230.403 333.233 230.036 333.078 229.406 333.401C228.54 333.853 227.828 333.659 227.271 332.82C226.61 331.825 226.016 331.857 225.488 332.916C225.077 333.704 224.409 334.131 223.485 334.195C222.575 334.247 222.106 334.673 222.076 335.474L221.68 343.477C221.533 301.841 221.453 260.205 221.438 218.569C221.438 214.286 221.13 212.193 217.652 209.054C199.01 192.215 181.666 173.845 163.97 155.823C163.707 155.555 163.369 155.348 162.985 155.219C162.602 155.091 162.184 155.046 161.769 155.087C159.986 155.281 158.182 155.979 156.421 156.172C135.82 158.42 120.919 143.945 123.406 126.447C126.025 108.019 148.563 96.2758 167.58 107.069C180.58 114.433 184.77 124.987 180.147 138.732C178.673 143.092 174.623 147.007 170.969 150.243C170.541 150.624 170.293 151.135 170.277 151.671C170.261 152.207 170.477 152.729 170.881 153.13C186.391 168.464 202.458 183.327 219.083 197.718C221.049 199.423 222.054 199.062 222.098 196.633L224.101 71.7242C224.571 70.8974 224.761 69.9802 224.673 68.9726L225.686 68.3913C226.141 68.1329 226.574 68.1523 226.984 68.4495C228.217 69.3408 228.562 69.2051 228.019 68.0425Z" fill="#4A5B3F"/>
<path d="M198.204 131.852C200.888 134.025 204.785 134.139 206.908 132.106C209.031 130.074 208.576 126.665 205.891 124.491C203.207 122.318 199.31 122.204 197.187 124.237C195.064 126.269 195.52 129.678 198.204 131.852Z" fill="#F8C89E"/>
<path d="M170.661 201.826C172.642 208.802 170.001 214.499 162.738 218.917C161.857 219.46 160.881 219.692 159.81 219.615C154.242 219.227 149.025 221.146 143.611 219.983C139.4 219.092 136.311 216.514 134.345 212.251C124.308 190.471 164.542 180.239 170.661 201.826Z" fill="#E28751"/>
<path d="M258.03 223.94C259.441 231.209 267.054 236.127 275.034 234.926C283.014 233.725 288.339 226.86 286.928 219.591C285.517 212.323 277.904 207.405 269.924 208.605C261.944 209.806 256.619 216.672 258.03 223.94Z" fill="#F8C89E"/>
<path d="M169.077 263.719L174.271 280.616L180.874 314.197L176.847 313.248C176.186 313.08 175.717 312.718 175.438 312.163C175.232 311.737 174.932 311.459 174.535 311.33C173.816 311.11 173.362 311.317 173.171 311.95C172.995 312.531 172.635 313.08 172.092 313.597L153.78 222.812C153.719 222.498 153.788 222.175 153.973 221.902C154.159 221.628 154.45 221.422 154.793 221.32L155.409 221.146C156.231 220.9 156.744 221.146 156.95 221.882L169.077 263.719Z" fill="#4A5B3F"/>
<path d="M161.99 314.004C160.698 314.96 159.855 316.135 159.458 317.53C159.268 318.189 158.784 318.532 158.006 318.557L157.147 318.577C156.399 318.603 156.216 318.906 156.597 319.488C156.803 319.798 156.715 320.108 156.333 320.418L120.039 288.58C119.589 288.183 119.009 287.917 118.379 287.82C117.749 287.723 117.099 287.799 116.517 288.038C105.226 292.708 90.2595 289.278 84.0087 280.267C74.7425 266.858 80.4431 249.902 98.5132 245.329C105.219 243.624 111.763 244.664 118.146 248.449C130.339 255.716 130.648 270.346 124.045 280.848C123.706 281.381 123.583 281.998 123.695 282.6C123.806 283.202 124.147 283.753 124.661 284.162L161.99 314.004Z" fill="#4A5B3F"/>
<path d="M326.799 299.219C326.403 298.766 326.3 298.108 326.491 297.242C326.623 296.648 326.344 296.286 325.655 296.157C323.82 295.821 322.757 295.188 322.463 294.258C322.522 294.064 322.559 293.812 322.573 293.502C322.573 293.224 322.504 292.951 322.371 292.703C322.237 292.455 322.043 292.238 321.803 292.068C312.661 285.48 309.184 276.682 311.37 265.676C314.43 250.212 337.122 243.043 352.265 249.728C370.753 257.867 374.759 278.95 359.418 291.138C352.639 296.538 345.691 298.967 338.574 298.424C332.705 297.985 328.78 298.25 326.799 299.219Z" fill="#4A5B3F"/>
<path d="M273.03 281.43L276.133 267.633C276.412 266.406 275.869 265.624 274.504 265.288C272.993 264.913 271.555 265.786 270.19 267.904C270.029 268.162 269.904 268.441 269.816 268.737L266.559 279.802C266.485 279.789 266.375 279.892 266.228 280.112C260.491 275.681 258.371 270.455 259.868 264.435C263.873 248.236 289.933 247.906 294.137 263.563C296.235 271.418 293.381 277.419 285.575 281.565C282.802 283.051 280.051 283.619 277.321 283.271C276.5 283.154 275.832 282.812 275.319 282.244C274.673 281.533 273.91 281.262 273.03 281.43Z" fill="#E28751"/>
<path d="M174.271 280.616L169.077 263.719C170.427 264.119 171.226 263.751 171.476 262.614C171.857 260.831 172.701 259.41 174.007 258.351C182.591 251.375 198.878 251.433 204.755 261.897C207.814 267.362 208.32 273.911 204.711 279.356C200.191 286.164 192.899 288.877 182.833 287.495C180.397 287.172 177.543 284.879 174.271 280.616Z" fill="#F8C89E"/>
<path d="M273.029 281.43C273.323 282.127 273.184 282.528 272.611 282.631L272.237 279.55C272.164 278.84 271.716 278.478 270.894 278.465C269.691 278.452 268.246 278.898 266.559 279.802L269.816 268.737C269.904 268.442 270.029 268.162 270.19 267.904C271.555 265.786 272.993 264.914 274.504 265.288C275.869 265.624 276.412 266.406 276.133 267.633L273.029 281.43Z" fill="#4A5B3F"/>
<path d="M272.611 282.631L262.399 337.102C262.378 337.222 262.398 337.345 262.456 337.455C262.513 337.565 262.607 337.658 262.724 337.722C262.841 337.786 262.977 337.818 263.115 337.815C263.253 337.811 263.386 337.772 263.499 337.703C281.899 326.218 299.236 313.481 315.508 299.49C317.724 297.578 320.042 295.834 322.464 294.258C322.757 295.188 323.821 295.821 325.655 296.157C326.345 296.286 326.623 296.648 326.491 297.242C326.301 298.108 326.403 298.766 326.8 299.219C313.506 310.445 300.065 321.38 286.477 332.025C269.911 344.995 253.11 356.861 236.075 367.622C235.277 368.126 234.628 368.788 234.18 369.553C233.732 370.318 233.499 371.164 233.5 372.021L233.324 486.892C233.327 487.086 233.39 487.277 233.507 487.442C233.624 487.607 233.79 487.741 233.988 487.829C234.185 487.916 234.406 487.955 234.627 487.94C234.847 487.925 235.059 487.858 235.238 487.744C245.7 481.078 255.62 474.652 264.996 468.464C268.671 466.061 270.19 461.894 270.894 458C274.167 439.797 277.49 421.77 280.865 403.916C284.489 400.609 286.712 400.235 287.534 402.792L279.258 456.953C279.199 457.341 279.376 457.606 279.787 457.748C280.315 457.941 281.173 457.864 281.657 457.573C306.462 441.994 329.287 423.682 352.749 406.532C355.097 405.977 356.77 406.255 357.767 407.366C358.428 408.076 358.244 408.528 357.217 408.722C356.542 408.851 356.322 409.245 356.557 409.904C356.777 410.576 356.513 410.834 355.764 410.679C355.676 410.666 355.596 410.673 355.522 410.699C355.214 410.828 355.009 411.022 354.906 411.28C354.701 411.784 354.774 412.339 355.126 412.946C344.884 421.408 334.283 429.482 323.322 437.169C322.896 437.453 322.72 437.911 322.794 438.544C325.171 442.2 325.274 443.834 323.102 443.447C318.348 442.375 313.036 444.177 307.167 448.853C301.297 453.53 298.297 455.913 298.165 456.004C277.563 470.537 256.544 484.663 235.106 498.383C234.517 498.758 234.04 499.256 233.718 499.834C233.396 500.411 233.238 501.051 233.258 501.696L234.776 563.356C234.778 563.483 234.813 563.608 234.879 563.722C234.944 563.835 235.038 563.935 235.154 564.013C235.271 564.091 235.406 564.146 235.55 564.173C235.694 564.2 235.843 564.199 235.987 564.17C254.372 560.695 271.885 557.226 288.524 553.764C292.868 552.86 296.888 551.833 300.586 550.683C301.128 550.515 301.606 550.218 301.968 549.824C302.329 549.431 302.559 548.957 302.633 548.455L305.186 530.55C305.802 529.542 307.607 529.355 310.6 529.988L308.751 548.164C308.743 548.276 308.765 548.388 308.816 548.491C308.867 548.594 308.946 548.684 309.045 548.755C309.145 548.825 309.262 548.874 309.387 548.895C309.512 548.917 309.642 548.913 309.764 548.881C327.709 543.959 345.347 538.837 362.676 533.515C371.083 530.931 379.418 528.16 387.679 525.201C388.148 525.576 389.124 525.718 390.606 525.628C364.18 537.603 337.915 547.55 311.811 555.469C309.669 556.128 309.162 557.323 310.292 559.054C310.776 559.804 312.016 560.811 314.012 562.077C313.748 564.222 313.931 566.16 314.562 567.891C314.826 568.588 314.562 568.834 313.77 568.627C313.3 568.498 312.882 568.246 312.515 567.871C311.312 566.631 309.889 565.979 308.245 565.914L302.259 561.341C301.567 560.809 300.738 560.433 299.845 560.248C298.951 560.062 298.019 560.071 297.13 560.275L236.273 574.15C235.466 574.33 235.092 574.789 235.15 575.525C238.173 614.216 241.665 652.829 245.627 691.365C245.965 694.634 246.53 697.321 247.322 699.427C247.351 700.111 247.19 700.647 246.838 701.035C246.544 701.332 246.031 701.481 245.297 701.481C233.661 701.584 222.025 701.571 210.389 701.442C209.597 701.442 209.091 701.106 208.871 700.434C208.709 699.943 208.761 699.413 209.025 698.845L219.479 577.463C219.512 577.035 219.383 576.608 219.113 576.248C218.843 575.888 218.446 575.614 217.983 575.467C215.532 574.705 212.825 574.066 209.861 573.549C188.57 569.841 167.793 565.63 147.529 560.915C145.118 560.356 142.556 560.656 140.398 561.748L93.3189 585.582C91.1473 584.032 89.7166 583.722 89.027 584.652C88.8362 584.924 88.5575 585.059 88.1906 585.059H87.1562C86.6279 585.059 86.3565 584.827 86.3418 584.362C86.3125 584.039 86.2391 583.748 86.1217 583.49C86.7967 582.792 87.743 582.165 88.9609 581.61L135.358 557.562C136.825 556.8 136.744 556.219 135.116 555.818C106.723 548.674 78.9465 539.147 51.7863 527.236L43.9948 519.485C42.0873 517.586 42.3441 517.328 44.7651 518.71C47.3623 520.17 49.9448 522.204 52.5126 524.814C81.8297 536.789 112.416 545.748 144.272 551.691C144.991 551.833 145.321 551.575 145.262 550.916L141.234 507.025L139.826 493.364C139.782 492.899 140.024 492.647 140.552 492.608L144.36 492.356C144.484 492.348 144.609 492.362 144.727 492.397C144.846 492.432 144.955 492.487 145.049 492.559C145.143 492.631 145.22 492.718 145.275 492.816C145.331 492.915 145.364 493.022 145.372 493.131L146.517 507.529L152.107 553.144C152.195 553.803 152.606 554.21 153.34 554.365C175.1 558.55 197.198 562.245 219.634 565.449C219.747 565.466 219.862 565.462 219.973 565.436C220.084 565.411 220.187 565.366 220.274 565.303C220.362 565.241 220.433 565.162 220.482 565.074C220.531 564.985 220.557 564.888 220.558 564.79L221.768 502.51C221.797 501.557 221.448 500.614 220.778 499.836L201.673 477.435C203.067 476.712 204.491 476.376 205.943 476.428C206.252 476.441 206.362 476.35 206.274 476.156C206.2 475.976 206.046 475.859 205.811 475.808C205.547 475.743 205.422 475.588 205.437 475.343C205.481 474.464 206.031 473.986 207.088 473.909C208.027 473.831 208.915 473.825 209.751 473.889L220.954 485.128C221.071 485.258 221.13 485.232 221.13 485.051L220.338 373.551C220.33 372.703 220.121 371.864 219.723 371.09C219.325 370.316 218.747 369.623 218.027 369.056L156.333 320.418C156.715 320.108 156.803 319.798 156.597 319.488C156.216 318.906 156.399 318.603 157.148 318.577L158.006 318.557C158.784 318.532 159.268 318.189 159.459 317.531C159.855 316.135 160.698 314.96 161.99 314.004L172.268 322.278C173.926 323.622 174.513 323.324 174.029 321.387L172.092 313.597C172.635 313.08 172.995 312.531 173.171 311.95C173.361 311.317 173.816 311.11 174.535 311.33C174.931 311.459 175.232 311.737 175.438 312.163C175.716 312.718 176.186 313.08 176.846 313.248L180.874 314.198C181.666 318.344 182.525 322.633 183.449 327.064C184.007 329.726 185.313 331.883 187.367 333.537C198.416 342.386 209.656 350.976 221.086 359.309C221.173 359.377 221.28 359.422 221.396 359.437C221.511 359.452 221.628 359.437 221.734 359.393C221.839 359.35 221.928 359.28 221.989 359.193C222.05 359.105 222.08 359.004 222.077 358.902L221.68 343.477L222.077 335.474C222.106 334.673 222.576 334.247 223.485 334.195C224.41 334.131 225.077 333.704 225.488 332.916C226.016 331.857 226.611 331.825 227.271 332.82C227.828 333.659 228.54 333.853 229.406 333.401C230.037 333.078 230.404 333.233 230.506 333.866L231.695 341.249L232.091 356.828C232.099 356.988 232.154 357.142 232.253 357.276C232.351 357.409 232.488 357.517 232.65 357.589C232.812 357.66 232.992 357.692 233.172 357.681C233.353 357.67 233.527 357.616 233.676 357.526C238.357 354.658 242.817 351.713 247.058 348.69C251.548 345.473 253.177 342.411 254.277 337.083C258.239 318.144 262.223 299.154 266.228 280.112C266.375 279.893 266.485 279.789 266.559 279.802C268.246 278.898 269.691 278.452 270.894 278.465C271.716 278.478 272.164 278.84 272.237 279.55L272.611 282.631Z" fill="#0C2D1F"/>
<path d="M307.921 348.432C311.599 352.839 318.479 353.89 323.289 350.779C328.099 347.668 329.018 341.574 325.34 337.166C321.663 332.759 314.782 331.708 309.972 334.819C305.162 337.93 304.244 344.024 307.921 348.432Z" fill="#E28751"/>
<path d="M355.126 412.946C354.774 412.339 354.701 411.784 354.906 411.28C355.009 411.021 355.214 410.828 355.522 410.699C355.596 410.673 355.676 410.666 355.764 410.679C356.513 410.834 356.777 410.576 356.557 409.904C356.322 409.245 356.542 408.851 357.217 408.722C358.244 408.528 358.428 408.076 357.767 407.366C356.77 406.255 355.097 405.977 352.749 406.532L373.768 389.751C373.948 389.608 374.091 389.433 374.187 389.238C374.283 389.043 374.331 388.831 374.327 388.618C374.322 388.406 374.267 388.196 374.163 388.004C374.059 387.811 373.909 387.641 373.724 387.503C361.502 378.512 357.635 368.261 362.125 356.751C372.822 329.273 420.341 338.362 417.854 367.777C416.578 382.756 401.193 392.212 384.465 390.914C381.956 390.72 379.205 391.747 377.576 393.375C370.562 400.351 363.079 406.875 355.126 412.946Z" fill="#4A5B3F"/>
<path d="M95.1679 363.165C80.8028 359.78 66.1223 358.986 51.1262 360.782C54.4864 354.529 60.7958 350.686 70.0546 349.252C75.3223 348.425 80.2746 349.174 84.9113 351.5C90.7953 354.458 94.2142 358.346 95.1679 363.165Z" fill="#F8C89E"/>
<path d="M138.857 386.476L136.26 370.819C136.157 370.147 135.798 369.618 135.181 369.23C127.17 364.089 123.017 364.954 122.724 371.827C121.139 364.153 123.582 358.87 130.053 355.976C144.866 349.368 159.282 362.409 153.582 375.489C151.219 380.928 146.311 384.59 138.857 386.476Z" fill="#869A76"/>
<path d="M95.1676 363.165C96.2241 367.68 96.2021 372.815 95.5858 377.059C94.3092 385.953 87.09 390.914 77.9119 393.569C77.3751 393.716 76.9202 394.036 76.6355 394.466C76.3507 394.895 76.2565 395.404 76.3711 395.894C78.176 403.555 81.5728 410.479 86.5617 416.667C86.3857 417.067 86.4077 417.364 86.6278 417.558C80.6998 410.996 76.0704 403.71 72.7395 395.7C72.4754 395.054 71.9692 394.634 71.2208 394.441C68.0954 393.646 64.2658 394.266 61.3605 392.929C48.3747 386.903 38.1181 371.207 51.1259 360.782C66.122 358.986 80.8025 359.78 95.1676 363.165ZM74.6764 387.077C75.1166 387.658 75.5788 387.671 76.063 387.116C77.3249 385.695 78.0366 384.112 78.198 382.368C78.3007 381.322 77.7798 380.941 76.6353 381.225C73.4659 382.02 73.0697 384.887 74.6764 387.077Z" fill="#E28751"/>
<path d="M288.524 401.203L290.109 387.775C290.388 385.398 289.177 384.345 286.478 384.616L285.663 384.694C282.67 385.004 281.173 386.483 281.173 389.131C281.158 393.33 280.447 397.005 279.038 400.157C267.608 394.886 263.433 386.993 266.515 376.478C269.266 367.137 281.349 359.968 293.081 361.731C306.088 363.669 314.98 372.292 312.207 384.442C310.072 393.724 300.366 404.033 288.524 401.203Z" fill="#E28751"/>
<path d="M138.857 386.476C161.439 416.37 185.07 445.507 209.751 473.889C208.914 473.825 208.027 473.831 207.088 473.909C206.031 473.986 205.481 474.464 205.437 475.343C205.422 475.588 205.547 475.743 205.811 475.808C206.046 475.859 206.2 475.976 206.273 476.156C206.361 476.35 206.251 476.441 205.943 476.428C204.49 476.376 203.067 476.712 201.673 477.435L170.815 438.738C170.346 438.149 169.701 437.687 168.95 437.403C168.2 437.119 167.375 437.024 166.567 437.13C154.139 438.796 141.395 439.009 128.336 437.769C111.257 436.154 97.3536 429.417 86.6275 417.558C86.4074 417.364 86.3854 417.067 86.5615 416.667C94.5877 426.369 104.485 431.885 116.253 433.215C132.863 435.114 149.114 434.708 165.005 431.995C165.17 431.965 165.325 431.899 165.454 431.802C165.583 431.706 165.683 431.583 165.744 431.445C165.805 431.306 165.826 431.156 165.805 431.008C165.783 430.861 165.72 430.72 165.621 430.599C155.496 418.256 146.406 404.75 137.8 391.631C133.266 384.713 124.881 379.675 122.724 371.827C123.017 364.954 127.17 364.089 135.181 369.23C135.798 369.618 136.157 370.147 136.26 370.819L138.857 386.476Z" fill="#4A5B3F"/>
<path d="M74.6766 387.077C73.0699 384.888 73.4661 382.02 76.6355 381.225C77.78 380.941 78.3009 381.322 78.1982 382.368C78.0368 384.112 77.3251 385.695 76.0632 387.116C75.579 387.671 75.1168 387.659 74.6766 387.077Z" fill="#B93309"/>
<path d="M288.524 401.203L287.534 402.792C286.712 400.235 284.489 400.609 280.865 403.916C280.762 400.441 280.153 399.188 279.038 400.157C280.446 397.005 281.158 393.33 281.173 389.131C281.173 386.483 282.669 385.004 285.663 384.694L286.477 384.616C289.177 384.345 290.388 385.398 290.109 387.775L288.524 401.203Z" fill="#4A5B3F"/>
<path d="M322.794 438.544L353.563 444.784L370.049 445.753C370.53 445.777 371.002 445.897 371.428 446.105C371.854 446.313 372.225 446.603 372.514 446.954C373.849 448.608 373.343 450.19 370.995 451.702C370.368 452.091 369.911 452.651 369.697 453.291L367.804 459.046C367.705 459.343 367.506 459.607 367.233 459.802C366.961 459.998 366.627 460.116 366.277 460.141C365.926 460.166 365.576 460.097 365.271 459.943C364.966 459.789 364.721 459.557 364.568 459.278L360.915 452.748C360.563 452.115 359.998 451.728 359.22 451.586L350.196 449.919L323.102 443.447C325.274 443.834 325.171 442.2 322.794 438.544Z" fill="#4A5B3F"/>
<path d="M350.196 449.919L359.22 451.585C359.998 451.728 360.563 452.115 360.915 452.748L364.569 459.278C364.721 459.557 364.966 459.789 365.271 459.943C365.576 460.097 365.927 460.166 366.277 460.141C366.627 460.115 366.961 459.997 367.234 459.802C367.506 459.606 367.705 459.343 367.804 459.046L369.697 453.291C369.911 452.651 370.369 452.091 370.995 451.702C373.343 450.19 373.849 448.608 372.514 446.954C372.225 446.603 371.855 446.313 371.428 446.105C371.002 445.897 370.531 445.777 370.049 445.753L353.564 444.784C355.794 441.528 358.332 439.636 361.179 439.106C367.092 438.008 372.705 438.447 378.017 440.424C399.718 448.524 391.223 476.04 369.037 475.304C361.26 475.045 355.295 471.512 351.143 464.704C348.047 459.64 347.731 454.712 350.196 449.919Z" fill="#E28751"/>
<path d="M146.517 507.529L145.372 493.131C145.364 493.022 145.331 492.915 145.275 492.817C145.22 492.718 145.143 492.631 145.049 492.559C144.955 492.487 144.846 492.432 144.727 492.397C144.609 492.362 144.484 492.348 144.36 492.356L140.552 492.608C140.024 492.647 139.782 492.899 139.826 493.364L141.234 507.025C132.665 508.162 126.194 505.514 121.822 499.08C114.272 487.977 115.901 475.517 127.786 467.243C138.043 460.092 153.428 460.267 163.002 468.231C171.381 475.207 173.78 483.714 170.199 493.751C166.634 503.75 158.74 508.343 146.517 507.529Z" fill="#F8C89E"/>
<path d="M390.606 525.628C389.124 525.718 388.148 525.576 387.679 525.201C388.471 524.452 388.647 523.858 388.207 523.419C380.782 515.913 378.185 507.148 380.416 497.123C382.859 486.136 391.09 477.784 403.548 474.994C415.624 472.268 425.939 473.838 434.494 479.703C441.992 484.844 446.343 490.858 447.546 497.743C450.561 514.97 438.302 530.143 418.669 532.313C408.852 533.398 399.498 531.17 390.606 525.628Z" fill="#E28751"/>
<path d="M52.5127 524.814C49.9448 522.204 47.3624 520.17 44.7652 518.71C42.3441 517.328 42.0873 517.586 43.9948 519.485L51.7864 527.236C43.2465 531.551 34.7948 532.965 26.431 531.48C-3.2823 526.19 -7.70631 492.569 17.1208 478.714C31.7574 470.537 49.8055 473.773 60.1281 486.117C68.2277 495.786 66.511 509.04 59.4458 518.884C58.7415 519.892 56.4304 521.868 52.5127 524.814Z" fill="#869A76"/>
<path d="M310.6 529.988C307.607 529.355 305.802 529.542 305.186 530.55C305.157 529.955 304.944 529.49 304.548 529.155C304.195 528.845 303.763 528.689 303.249 528.689C298.407 528.702 294.262 526.48 290.813 522.023C279.456 507.374 285.377 486.872 307.805 485.593C327.988 484.45 340.556 500.379 332.324 516.133C328.142 524.142 321.532 528.153 312.493 528.166C311.73 528.179 311.194 528.489 310.886 529.096C310.71 529.406 310.615 529.704 310.6 529.988Z" fill="#E28751"/>
<path d="M314.012 562.077L341.128 583.276C342.419 584.284 343.63 584.219 344.759 583.083C361.707 566.224 389.77 583.025 377.906 602.402C373.13 610.231 361.641 613.157 352.859 609.766C344.525 606.562 340.497 600.413 340.776 591.318C340.782 591.002 340.71 590.69 340.566 590.402C340.421 590.114 340.208 589.858 339.939 589.652L308.245 565.914C309.889 565.979 311.312 566.631 312.515 567.871C312.882 568.246 313.3 568.498 313.769 568.627C314.562 568.834 314.826 568.588 314.562 567.891C313.931 566.16 313.748 564.222 314.012 562.077Z" fill="#4A5B3F"/>
<path d="M88.9606 581.61C87.7427 582.165 86.7964 582.792 86.1214 583.49C80.4135 585.247 74.6616 586.945 68.8657 588.586C61.2796 590.743 59.4307 594.916 63.3191 601.104C65.168 604.075 68.154 605.987 72.2772 606.84C78.9828 608.235 85.9013 606.769 93.0324 602.441C89.2321 613.564 80.8463 618.705 67.8752 617.866C59.0712 617.297 52.7251 613.964 48.8367 607.867C41.2433 595.891 47.1859 580.428 62.7029 576.475C72.4752 573.995 81.2278 575.706 88.9606 581.61Z" fill="#869A76"/>
<path d="M86.1215 583.49C86.2389 583.748 86.3123 584.039 86.3417 584.362C86.3563 584.827 86.6278 585.059 87.156 585.059H88.1905C88.5573 585.059 88.836 584.924 89.0268 584.652C89.7164 583.722 91.1471 584.032 93.3187 585.582C92.5851 585.647 92.0275 585.841 91.646 586.164C91.0737 586.629 90.9857 587.152 91.3819 587.733C92.3503 589.129 93.4949 590.272 93.6269 591.958C93.9644 596.001 93.7663 599.496 93.0326 602.441C85.9014 606.769 78.983 608.235 72.2773 606.84C68.1541 605.987 65.1681 604.075 63.3193 601.104C59.4309 594.916 61.2797 590.743 68.8658 588.586C74.6617 586.945 80.4137 585.247 86.1215 583.49Z" fill="#4A5B3F"/>
<path d="M209.025 698.845C208.761 699.414 208.709 699.943 208.871 700.434C209.091 701.106 209.597 701.442 210.389 701.442C222.025 701.571 233.661 701.584 245.297 701.481C246.031 701.481 246.544 701.332 246.838 701.035C247.19 700.647 247.351 700.111 247.322 699.427C256.581 698.096 265.818 699.2 275.032 702.74C276.265 703.218 277.299 703.877 278.136 704.717C278.419 704.999 278.627 705.334 278.746 705.695C278.866 706.057 278.893 706.438 278.825 706.81C278.758 707.182 278.598 707.537 278.357 707.848C278.116 708.16 277.8 708.42 277.431 708.612C272.399 711.221 266.94 712.92 261.056 713.708C234.175 717.273 208.254 716.679 183.295 711.925C179.686 711.227 175.834 709.619 172.863 707.74C172.594 707.569 172.373 707.347 172.216 707.09C172.059 706.833 171.971 706.548 171.958 706.256C171.946 705.965 172.009 705.675 172.142 705.408C172.276 705.141 172.477 704.905 172.731 704.717C175.929 702.391 179.473 700.912 183.361 700.279C191.725 698.936 200.279 698.458 209.025 698.845Z" fill="#A5B18D"/>
</g>
</svg>
