<svg width="45" height="45" viewBox="0 0 45 45" fill="none" xmlns="http://www.w3.org/2000/svg">
<path d="M23.9687 13.8229C23.9687 12.9772 23.3111 12.2917 22.4999 12.2917C21.6888 12.2917 21.0312 12.9772 21.0312 13.8229V20.9687H14.177C13.3658 20.9687 12.7083 21.6543 12.7083 22.5C12.7083 23.3457 13.3658 24.0312 14.177 24.0312H21.0312V31.1771C21.0312 32.0228 21.6888 32.7083 22.4999 32.7083C23.3111 32.7083 23.9687 32.0228 23.9687 31.1771V24.0312H30.8228C31.634 24.0312 32.2916 23.3457 32.2916 22.5C32.2916 21.6543 31.634 20.9687 30.8228 20.9687H23.9687V13.8229Z" fill="#24292E"/>
<path fill-rule="evenodd" clip-rule="evenodd" d="M22.4999 0.0416565C10.6028 0.0416565 0.958252 10.0966 0.958252 22.5C0.958252 34.9034 10.6028 44.9583 22.4999 44.9583C34.3971 44.9583 44.0416 34.9034 44.0416 22.5C44.0416 10.0966 34.3971 0.0416565 22.4999 0.0416565ZM3.89575 22.5C3.89575 11.788 12.2251 3.10416 22.4999 3.10416C32.7747 3.10416 41.1041 11.788 41.1041 22.5C41.1041 33.212 32.7747 41.8958 22.4999 41.8958C12.2251 41.8958 3.89575 33.212 3.89575 22.5Z" fill="#24292E"/>
</svg>